<?xml version="1.0" standalone="no"?>
<!DOCTYPE svg PUBLIC "-//W3C//DTD SVG 20010904//EN"
 "http://www.w3.org/TR/2001/REC-SVG-20010904/DTD/svg10.dtd">
<svg version="1.0" xmlns="http://www.w3.org/2000/svg"
 width="500.000000pt" height="500.000000pt" viewBox="0 0 500.000000 500.000000"
 preserveAspectRatio="xMidYMid meet">

<g transform="translate(0.000000,500.000000) scale(0.100000,-0.100000)"
fill="#000000" stroke="none">
<path d="M798 3333 c-51 -54 -85 -113 -139 -238 l-46 -110 -44 -8 c-118 -22
-179 -37 -230 -56 -171 -65 -169 -221 4 -221 108 0 195 68 257 203 31 65 32
66 78 72 26 3 63 8 84 11 40 6 40 7 53 -103 11 -89 26 -72 19 21 -6 80 -6 86
12 87 16 0 15 2 -5 10 -24 9 -24 10 -17 117 4 59 13 137 20 174 17 92 10 99
-46 41z m28 -20 c-10 -33 -26 -187 -26 -249 l0 -61 -46 -7 c-55 -7 -114 -8
-114 -1 0 18 101 229 132 276 38 57 65 77 54 42z m-252 -417 c-55 -117 -142
-185 -235 -186 -65 0 -99 28 -99 82 0 78 88 129 282 162 40 7 74 9 76 6 2 -4
-9 -33 -24 -64z"/>
<path d="M3813 3333 c-48 -53 -93 -132 -143 -249 l-42 -101 -80 -12 c-98 -15
-201 -46 -247 -73 -41 -26 -71 -73 -71 -115 0 -80 129 -112 238 -57 63 31 101
75 149 171 l35 72 57 6 c31 3 68 9 84 11 23 5 27 2 27 -17 0 -45 22 -149 32
-149 9 0 3 111 -8 153 -4 12 0 17 15 17 12 0 21 5 21 10 0 6 -10 10 -21 10
-22 0 -22 2 -15 113 4 61 13 140 20 175 18 86 5 95 -51 35z m18 -92 c-6 -39
-11 -106 -11 -150 0 -44 -4 -82 -9 -85 -13 -8 -151 -20 -151 -13 0 4 21 55 47
113 48 111 124 236 131 216 2 -7 -1 -43 -7 -81z m-227 -317 c-54 -128 -128
-197 -226 -210 -52 -7 -92 7 -113 40 -35 53 16 123 115 160 56 20 164 44 207
45 l32 1 -15 -36z"/>
<path d="M2100 3314 c-100 -27 -160 -83 -146 -138 3 -14 16 -30 27 -37 25 -13
41 -2 16 12 -10 6 -17 22 -17 40 0 66 100 119 222 119 102 0 148 -30 148 -96
0 -61 -82 -152 -164 -184 l-26 -10 0 79 c0 88 -8 141 -21 141 -5 0 -9 -14 -9
-31 0 -17 -6 -37 -13 -44 -10 -9 -16 -55 -21 -138 -9 -156 2 -257 28 -257 19
0 26 32 26 120 0 105 4 113 58 132 89 32 172 129 172 200 0 87 -134 131 -280
92z m27 -281 c-2 -16 -4 -3 -4 27 0 30 2 43 4 28 2 -16 2 -40 0 -55z m0 -140
c-2 -21 -4 -6 -4 32 0 39 2 55 4 38 2 -18 2 -50 0 -70z"/>
<path d="M1187 3293 c-4 -3 -7 -21 -7 -38 0 -18 -3 -47 -6 -64 -6 -28 -10 -31
-45 -31 l-39 0 0 46 c0 59 -24 55 -28 -4 -3 -40 -5 -42 -35 -43 l-32 -1 30 -7
c30 -6 30 -7 33 -82 3 -76 2 -77 -24 -83 -19 -5 -32 -2 -48 13 -29 27 -106 26
-106 -1 0 -29 29 -34 47 -9 l15 22 24 -22 c19 -17 31 -21 64 -16 33 4 42 2 51
-15 9 -17 18 -19 49 -15 25 3 41 1 44 -7 5 -11 18 1 43 41 11 17 12 17 25 -1
11 -14 23 -18 49 -14 19 3 43 0 54 -7 22 -15 65 -4 65 16 0 8 16 10 54 6 45
-4 57 -2 72 14 17 19 17 19 32 -2 12 -18 22 -20 81 -16 38 2 73 7 80 11 22 14
11 -40 -15 -75 -75 -100 -95 -191 -43 -197 23 -3 30 3 48 42 12 25 27 75 33
113 9 59 15 72 46 101 19 17 29 32 22 32 -7 0 -22 -7 -32 -17 -17 -15 -18 -14
-18 20 0 44 -20 49 -44 12 -19 -28 -41 -24 -33 6 3 12 0 19 -9 19 -8 0 -14 -9
-14 -20 0 -18 -26 -40 -49 -40 -6 0 -19 9 -29 20 -21 23 -88 24 -115 1 -21
-16 -53 -6 -60 19 -9 36 -34 24 -33 -16 1 -23 -4 -39 -13 -42 -10 -3 -12 4 -9
32 4 38 -16 52 -27 18 -3 -11 -16 -24 -29 -30 -20 -9 -27 -7 -42 9 -12 13 -27
19 -42 16 -20 -4 -23 -1 -18 17 36 124 46 217 30 260 -6 16 -35 22 -47 9z m24
-138 l-9 -60 -1 67 c-1 69 11 128 17 78 1 -14 -2 -52 -7 -85z m-41 -83 c0 -85
-13 -117 -46 -110 -11 2 -24 17 -31 38 -13 38 -17 133 -6 143 3 4 24 7 45 7
l38 0 0 -78z m546 -256 c-20 -74 -54 -117 -44 -56 8 45 47 135 55 127 3 -4 -2
-36 -11 -71z"/>
<path d="M2586 3285 c-3 -9 -6 -41 -6 -71 l0 -54 -45 0 -45 0 0 46 c0 59 -24
55 -28 -4 -3 -40 -5 -42 -35 -43 l-32 -1 30 -7 30 -6 0 -75 0 -75 -34 3 c-21
1 -41 -4 -52 -14 -11 -10 -19 -12 -19 -6 0 6 11 19 25 30 28 22 32 32 11 32
-17 0 -66 -56 -66 -76 0 -18 30 -18 55 0 11 7 37 15 57 18 31 3 38 0 47 -19
12 -26 58 -32 79 -11 9 9 12 8 12 -4 0 -32 19 -28 36 7 18 39 26 42 45 19 9
-11 23 -14 48 -10 19 3 41 0 48 -6 9 -7 17 -7 28 2 8 6 23 9 35 5 12 -4 27 -1
35 5 12 10 15 9 15 -4 0 -21 24 -21 56 0 17 12 39 15 73 12 27 -3 56 -1 65 4
26 15 20 -33 -10 -73 -45 -59 -75 -129 -72 -162 2 -27 8 -33 31 -35 24 -3 30
2 48 43 11 26 26 78 32 117 10 58 17 75 40 92 26 19 28 19 44 3 15 -14 15 -21
5 -37 -16 -26 -15 -40 2 -40 8 0 17 9 21 20 3 11 23 33 43 49 42 36 37 53 -7
22 l-29 -21 -21 26 c-24 31 -13 55 21 46 15 -3 19 -1 16 9 -11 32 -78 9 -78
-26 0 -7 -9 -20 -20 -30 -20 -18 -20 -17 -20 18 0 44 -20 49 -44 12 -19 -28
-41 -24 -33 6 3 12 0 19 -8 19 -8 0 -15 -10 -17 -22 -3 -19 -8 -23 -37 -20
-18 1 -40 -3 -47 -9 -8 -7 -17 -9 -20 -7 -3 3 6 15 20 26 15 11 26 23 26 26 0
15 -30 4 -54 -20 l-26 -27 6 32 c9 44 -12 40 -27 -6 -10 -32 -13 -35 -24 -20
-16 22 -31 22 -44 0 -6 -11 -11 -13 -12 -5 -1 6 -2 16 -3 21 -3 21 -17 24 -22
4 -3 -11 -16 -25 -29 -31 -19 -9 -26 -7 -41 9 -12 13 -27 19 -41 16 -13 -2
-23 -3 -23 -2 0 1 7 22 15 46 22 61 35 167 27 209 -8 39 -44 55 -56 25z m26
-151 l-10 -49 -1 46 c0 25 2 68 7 95 l7 49 3 -46 c2 -25 -1 -68 -6 -95z m-42
-62 c0 -85 -13 -117 -46 -110 -11 2 -24 17 -31 38 -13 38 -17 133 -6 143 3 4
24 7 45 7 l38 0 0 -78z m475 -254 c-18 -73 -51 -118 -42 -58 6 42 45 135 53
127 3 -3 -2 -34 -11 -69z"/>
<path d="M4601 3243 c-16 -83 -42 -185 -53 -206 -6 -11 -16 -16 -27 -12 -10 3
-29 -3 -44 -15 -18 -15 -34 -19 -52 -14 -18 4 -32 1 -45 -11 -11 -10 -20 -13
-20 -7 0 6 12 20 27 31 25 21 25 45 -1 26 -54 -40 -67 -46 -84 -40 -11 3 -22
15 -25 25 -9 36 -34 24 -33 -16 1 -23 -4 -39 -13 -42 -10 -3 -12 4 -9 32 3 25
0 36 -9 36 -7 0 -13 -4 -13 -9 0 -16 -51 -71 -66 -71 -12 0 -13 8 -8 37 6 33
5 36 -15 30 -15 -3 -21 -1 -19 8 2 8 -1 15 -7 17 -5 2 -11 -6 -13 -18 -2 -12
-17 -28 -38 -37 -43 -21 -44 -21 -44 3 0 22 -28 40 -49 32 -15 -5 -15 -5 18
92 12 34 21 84 21 118 0 56 -1 59 -22 56 -33 -4 -48 -61 -55 -204 -4 -86 -3
-123 6 -128 6 -4 15 3 20 17 14 36 31 43 31 13 0 -14 -10 -34 -22 -46 -32 -30
-6 -24 72 15 79 40 92 42 89 18 -3 -35 1 -43 24 -43 12 0 32 7 45 15 16 12 26
13 42 5 21 -11 60 2 60 20 0 6 14 10 30 10 20 0 30 -5 30 -15 0 -19 30 -19 56
0 29 22 71 19 79 -5 8 -26 46 -26 70 -1 9 11 28 48 41 83 l23 63 0 -55 c1 -90
40 -121 87 -69 20 22 7 25 -20 4 -10 -8 -23 -12 -28 -9 -5 3 -8 76 -7 162 1
166 -11 208 -30 105z m-656 -93 l-14 -55 5 67 c5 80 18 120 21 73 2 -16 -4
-55 -12 -85z m585 -149 c0 -5 -9 -19 -20 -32 l-19 -24 -1 26 c0 14 3 29 7 32
9 10 33 8 33 -2z"/>
<path d="M1883 3045 c-28 -20 -29 -28 -1 -65 18 -25 20 -33 10 -55 -15 -33
-15 -35 3 -35 8 0 19 10 26 23 6 12 28 36 48 54 39 35 25 46 -17 12 l-26 -20
-18 23 c-24 30 -19 54 11 50 14 -1 21 2 19 10 -7 19 -30 20 -55 3z"/>
<path d="M1100 2500 l0 -30 1440 0 1440 0 0 30 0 30 -1440 0 -1440 0 0 -30z"/>
</g>
</svg>
